<mxfile host="app.diagrams.net" modified="2022-07-21T06:42:11.346Z" agent="5.0 (Windows NT 10.0; Win64; x64) AppleWebKit/537.36 (KHTML, like Gecko) Chrome/103.0.0.0 Safari/537.36" etag="naBj1jsR1T0LYgmf7C6X" version="20.1.2" type="github">
  <diagram id="pG0E0pUUG9LTyeoaSf-a" name="Page-1">
    <mxGraphModel dx="1422" dy="762" grid="1" gridSize="10" guides="1" tooltips="1" connect="1" arrows="1" fold="1" page="1" pageScale="1" pageWidth="1169" pageHeight="827" math="0" shadow="0">
      <root>
        <mxCell id="0" />
        <mxCell id="1" parent="0" />
        <mxCell id="_WF7XRUWTzuwCXFAQq3I-66" value="" style="rounded=1;whiteSpace=wrap;html=1;direction=south;fillColor=none;strokeColor=#68B92E;strokeWidth=2;" vertex="1" parent="1">
          <mxGeometry x="235" y="240" width="260" height="90" as="geometry" />
        </mxCell>
        <mxCell id="_WF7XRUWTzuwCXFAQq3I-37" value="" style="rounded=1;whiteSpace=wrap;html=1;direction=south;fillColor=none;strokeColor=#68B92E;strokeWidth=2;" vertex="1" parent="1">
          <mxGeometry x="856.5" y="401" width="262.37" height="85" as="geometry" />
        </mxCell>
        <mxCell id="_WF7XRUWTzuwCXFAQq3I-50" value="Deployment" style="text;strokeColor=none;fillColor=none;align=center;verticalAlign=top;rounded=0;fontSize=13;fontColor=#68B92E;fontStyle=1;horizontal=1;labelPosition=center;verticalLabelPosition=middle;html=1;whiteSpace=wrap;" vertex="1" parent="1">
          <mxGeometry x="1042.87" y="396" width="70" height="30" as="geometry" />
        </mxCell>
        <mxCell id="_WF7XRUWTzuwCXFAQq3I-46" value="" style="rounded=1;whiteSpace=wrap;html=1;direction=south;fillColor=none;strokeColor=#68B92E;strokeWidth=2;" vertex="1" parent="1">
          <mxGeometry x="230" y="397.5" width="260" height="90" as="geometry" />
        </mxCell>
        <mxCell id="_WF7XRUWTzuwCXFAQq3I-8" value="" style="rounded=1;whiteSpace=wrap;html=1;direction=south;fillColor=none;strokeColor=#68B92E;strokeWidth=2;" vertex="1" parent="1">
          <mxGeometry x="570" y="400" width="252.87" height="85" as="geometry" />
        </mxCell>
        <mxCell id="_WF7XRUWTzuwCXFAQq3I-1" value="Redis" style="rounded=1;whiteSpace=wrap;html=1;fontColor=#FFFFFF;strokeColor=#68B92E;fillColor=#68B92E;fontSize=14;fontStyle=1" vertex="1" parent="1">
          <mxGeometry x="310" y="307.5" width="100" height="40" as="geometry" />
        </mxCell>
        <mxCell id="_WF7XRUWTzuwCXFAQq3I-2" value="WAF" style="shape=image;verticalLabelPosition=bottom;labelBackgroundColor=default;verticalAlign=top;aspect=fixed;imageAspect=0;image=data:image/png,iVBORw0KGgoAAAANSUhEUgAAAEMAAABFCAYAAAARk1tuAAAAAXNSR0IArs4c6QAAAARnQU1BAACxjwv8YQUAAAAJcEhZcwAADsMAAA7DAcdvqGQAAApdSURBVHhe5ZwJVFTXGcfvW2YfVmEE3FBCi0GtsdW4a4tmEYtJbLUmcU3TpNgTezxaNTWaGKNGbE+qia02ai1pgomaVKMYjQY02lZtVFxotKAoyMiAMDrM8tZ+d+YOBZmBWUBm5HfO88373zfOzP9+97v3vnd5FLpPSJKUCbvusCVxsqO3IDj60BSTyNLKeIZm1ILIV/OyvZpGTJma1V+B8ypguwnbSZqmS2Df7rSbGfDjVRRFZTkk+08Ymfkxyyg0Vv6uaHaYUK3DyJjtJlTnqHJuDtGKolUGFAVbtCoeRasNKEaVIEQquzA0zVD1vLlYy0Z+AP/tHjDmgusT2p42NwNMmCHI/GQGMZnwQ5jLt08LZ6sOs0WmQlRjw5XtH/3iRqEBhrFoQPwYMCse2QRLiZrRfQhFH4Exxa6z2oY2M0OW5aeg5tdqFRGpl6qP82eqjiiKTAXojqOanBE8340dAqaMRY8YMrgYTYISPjMH5DfBlLuuM4IjaDMgEn4AYbxOr4we882tQ9znJRuVlZZSUtp+jO05DWX2eVlUMRob5J2lYMgfSFHABGwG1EqCQ7CtVLGaF0rrzgmfl/yRLa75Bym9P6gYLZqQ8gv0WPJsZBesl8GYV8GUXaTYbwIyA6JhmCjzOy1cXdzekveUJyo+IyUdQ1ddMprQ5yU0JHECrqQ1YMgSUuQXfpsBH/ZTSRLzLtWcEN8vWqhwiDZS0vGM6PYMej59OXII9o/VCs1UIvuMX2ZARMyH7vJ3hTd2oLziVUQNLdLjRqDZ/dfINEX9W83osyBKKklRq/hshpW3vKdhddl/v7IeHbi6haihSZL+IfTCgLVinDrJqGDUT4Mhp0hRi/hkhp23boZE+eJfLixF/7q5l6ihjZaNQHMGrEFpsUPrYaQ7GAxpdUzSqhnQNOZC03h3a9FidMqYT9TwYeGQvwpJEanFENUDiOQVmuw9Akb8CBuxv3RTWBqB2X5hKSuIXD+7aPsbkbzi1QwwIpGT7Hlnbh3m9/53I1HDjyrrdZR7cRmlotXPwm/6DZE94t0MWci9bbsZC84qiBS24HnRp5ffQRDlb4MhWURuhsecAW9YJsnS6zknp1Nldy4S1Tsbx58lrzqW7EMDySvPzOi3Ag1JyKxhaDYJjOGI3EAzM8CIWEkWb+4r3aTKL91MVM+Eign34s0UnSIavTXqgKxk1Mugd1lJ5AaamQHjiXcg4cxdcmw8K0o8UZvjNqK12rif+PKdMlNeRk/0/rmdpRU4OmqJ7KRJzoCo6AFd0Lwvrm1p0Yhw5uDVbcjGW1QwrWiWTJuYwYn2127bjNzhslyiPHjwkgMdKttGyUheBJXfjchOGswAp9LwKPPA1T8rieQ3OEwb5xF/j1vDfX7jLRAOXduOau23ZHjZJDoaR8asWrvx7rHyneTwwebgta00REc2BEHD0KEhgXKCo/ho+Y60nd+uI0rLuGsl3BKomxh1V7Rq9EHcIiZBz7IHa87IgLaTqmCUaRerj+PDTgE0E3TVXIQsXO0UIjU0kwkOwcbf78t2Hc3F6q+RglE9QQ5dzYQTuS+LTAWj3j+3wK/kGWgCa298bbq9otLR4kc/xE1lCL7mQcMLvYJWZJw3Ffrdi4RSvsDg7+PPdyozX0S3bZUSvHwSH1OQLybDSGznwoKxuP1grVMxre9v0bCkSWeUrHoQzhlJNsFi64xGYPAUH8D3gJ2R8Va1rXzusq8nRmHBH0IxZ/jbdAcnPIlm9V8lMTTD4MhIvG2vDHjUGWr4W0FmrhrRFE1DUBhwZOSfNuaP3Hp+iZ6U+0S4D7rcJOh6o+UjPsM9ykAcGQkwAGFdRZ0PvESCkOhsJnUOE560BA2umcZh6u+xL7jfE8h7PQGdB56tS9CjJmAz4u9wNbivDXna4sd7wsrfEaCZOHNGxa5v18Ucvv6BhpT5hPuLhXvOwKzPOCWztGImDeFRGakyeLww3BnQKaJgfqIEG6hKPByvjNMmWUlZpyNKFefcgw9GnDOMeHGZv4RS8wiGSGIGUIlzxgroTX756tHxDaqvtFdCCwZ/K+nRxIloevoKgWVYBTYjG7qWnF8fGaol5Z2K8cmz8O2DKjWr7YqbyXUVq9HGqhNdpZ2MJH0K/Cs7F91SkDgYiI76vP+sUh0r/wRrfhMKzSXQHJYztlCEHmUJTdM5zi4VzNh9qebE4+9+k+1XUwnFnIHx1ZjUmO+j+YO34p6kP5hxwW3Gi5Is/mnekaG0r3fSHoRB11Op89CYHlPKNYqIHvgY5wxMPkOzNF4c1pnoFzdKdIj2L8ihywwIkXIIlX8OjM9ok2XH4YBB2wt1i0hlYNCVR6Qmd9Ty8YL1YMBh2jiP+HvcGu7zG2+BMqjrOCRIfD0Mw78k0v/NAHGzhtVr8NLjUKWt8pOa1aHHkudIDMX+nkhOmkzQIJGudIjWhYsKM5RcKyt/3bUSjgk066FfoYxe021KRm2AILAQuUkzwbwNJzhCOTqCBc9F4PfJnMytbWwEpokZkEjvUoheDSdLEcpYoj5Y4IqGXFGrZyPfIFIDza5jOEeksnTjSFlu4q7LTZpUM4JJYO2Jt2YSr+2OVozch3/jK1DxG4jcwL3NBCdSkULUmnHJM6EfHknU8KGlfDE1bQkPOfG6JyMwXq9wQTLNtXB1P1t78jm2OoC/LQs1nvnOfJihzsRRMRzM8LjcoFlkuIEImQ3T2mKY6xMlfBne7Wm3EXO8GYFpyQyBpZXPpUQ/Ysc3Z8OVPtHfQ9PTX0c2oX4DGLGNyB7xagYG3nyeoZkZo3tMQT/s+SxRw4dYTSKakf6mVM+Zj2oV+leI7JUWzcBAhHwC4bV8Stoi9HjvOUQNfRL1KSh74AYxWmUw6pRRk4ncIl4T6L1AQl0AxuQU3MhDO4pXEzU0ebjLcDS7/2oZovqMmtHjBWzlpKhFfDYDA4ZMhZHIR0WmQmrr+cX4thwpCR1wssQ5AprGHr0qehKRfcIvMzBgyAhe4nYbLaVdtpxfxFRZy0hJx5OZ8hKamJKNk+V6yBHziOwzfpuBAUN6SbL4MUXRg/eXbqL2l26Gbqvjbtf27TIM//WzkBIzkPU2uvSFgMxwAx+8WJSEN8ycSbm/ZDM6XrGblNwfEnR9nH/xjFff2Pj6wzAuwhd2ffpLRU8EZQYGoqQr7F6D5Dq3tO4s2gdRcqmdF9fimee4XtOd9zzq+TulWjZiAZjwKSkOmKDNcAOmDILdMjBlEuQT8azpK6aoqsC5Crct0CuiyaMjXJsg82a7aF0VqYxZS04JmjYzww2YMhp2WTAhmqZmdUnVtnJ0DkzBj4+ouHsZatLsOrEVWFqBekY+jHpEpDlNwN0lNEtk4esKwJhcMB1yVtPrEcHS5mY0BowZDLssm2B5XquISMYaJ9jlOq6KMuOnqpCnq7ierBLverKK2oCilPFypKqL87tBTuLAwK8ilLHb4RA/WaUe6+1Bu5rRGDCmL+ycz9yBrZuFq02D4W13Ba0yUBTSQ+9kdAg2k4rVXVEzWvwADvy8nQqo/dOwifC6nUHofy2Bd0ePUISmAAAAAElFTkSuQmCC;fontColor=#68B92E;fontStyle=1;fontSize=14;" vertex="1" parent="1">
          <mxGeometry x="439.88" y="690" width="67" height="69" as="geometry" />
        </mxCell>
        <mxCell id="_WF7XRUWTzuwCXFAQq3I-3" value="WAF" style="shape=image;verticalLabelPosition=bottom;labelBackgroundColor=default;verticalAlign=top;aspect=fixed;imageAspect=0;image=data:image/png,iVBORw0KGgoAAAANSUhEUgAAAEMAAABFCAYAAAARk1tuAAAAAXNSR0IArs4c6QAAAARnQU1BAACxjwv8YQUAAAAJcEhZcwAADsMAAA7DAcdvqGQAAApdSURBVHhe5ZwJVFTXGcfvW2YfVmEE3FBCi0GtsdW4a4tmEYtJbLUmcU3TpNgTezxaNTWaGKNGbE+qia02ai1pgomaVKMYjQY02lZtVFxotKAoyMiAMDrM8tZ+d+YOBZmBWUBm5HfO88373zfOzP9+97v3vnd5FLpPSJKUCbvusCVxsqO3IDj60BSTyNLKeIZm1ILIV/OyvZpGTJma1V+B8ypguwnbSZqmS2Df7rSbGfDjVRRFZTkk+08Ymfkxyyg0Vv6uaHaYUK3DyJjtJlTnqHJuDtGKolUGFAVbtCoeRasNKEaVIEQquzA0zVD1vLlYy0Z+AP/tHjDmgusT2p42NwNMmCHI/GQGMZnwQ5jLt08LZ6sOs0WmQlRjw5XtH/3iRqEBhrFoQPwYMCse2QRLiZrRfQhFH4Exxa6z2oY2M0OW5aeg5tdqFRGpl6qP82eqjiiKTAXojqOanBE8340dAqaMRY8YMrgYTYISPjMH5DfBlLuuM4IjaDMgEn4AYbxOr4we882tQ9znJRuVlZZSUtp+jO05DWX2eVlUMRob5J2lYMgfSFHABGwG1EqCQ7CtVLGaF0rrzgmfl/yRLa75Bym9P6gYLZqQ8gv0WPJsZBesl8GYV8GUXaTYbwIyA6JhmCjzOy1cXdzekveUJyo+IyUdQ1ddMprQ5yU0JHECrqQ1YMgSUuQXfpsBH/ZTSRLzLtWcEN8vWqhwiDZS0vGM6PYMej59OXII9o/VCs1UIvuMX2ZARMyH7vJ3hTd2oLziVUQNLdLjRqDZ/dfINEX9W83osyBKKklRq/hshpW3vKdhddl/v7IeHbi6haihSZL+IfTCgLVinDrJqGDUT4Mhp0hRi/hkhp23boZE+eJfLixF/7q5l6ihjZaNQHMGrEFpsUPrYaQ7GAxpdUzSqhnQNOZC03h3a9FidMqYT9TwYeGQvwpJEanFENUDiOQVmuw9Akb8CBuxv3RTWBqB2X5hKSuIXD+7aPsbkbzi1QwwIpGT7Hlnbh3m9/53I1HDjyrrdZR7cRmlotXPwm/6DZE94t0MWci9bbsZC84qiBS24HnRp5ffQRDlb4MhWURuhsecAW9YJsnS6zknp1Nldy4S1Tsbx58lrzqW7EMDySvPzOi3Ag1JyKxhaDYJjOGI3EAzM8CIWEkWb+4r3aTKL91MVM+Eign34s0UnSIavTXqgKxk1Mugd1lJ5AaamQHjiXcg4cxdcmw8K0o8UZvjNqK12rif+PKdMlNeRk/0/rmdpRU4OmqJ7KRJzoCo6AFd0Lwvrm1p0Yhw5uDVbcjGW1QwrWiWTJuYwYn2127bjNzhslyiPHjwkgMdKttGyUheBJXfjchOGswAp9LwKPPA1T8rieQ3OEwb5xF/j1vDfX7jLRAOXduOau23ZHjZJDoaR8asWrvx7rHyneTwwebgta00REc2BEHD0KEhgXKCo/ho+Y60nd+uI0rLuGsl3BKomxh1V7Rq9EHcIiZBz7IHa87IgLaTqmCUaRerj+PDTgE0E3TVXIQsXO0UIjU0kwkOwcbf78t2Hc3F6q+RglE9QQ5dzYQTuS+LTAWj3j+3wK/kGWgCa298bbq9otLR4kc/xE1lCL7mQcMLvYJWZJw3Ffrdi4RSvsDg7+PPdyozX0S3bZUSvHwSH1OQLybDSGznwoKxuP1grVMxre9v0bCkSWeUrHoQzhlJNsFi64xGYPAUH8D3gJ2R8Va1rXzusq8nRmHBH0IxZ/jbdAcnPIlm9V8lMTTD4MhIvG2vDHjUGWr4W0FmrhrRFE1DUBhwZOSfNuaP3Hp+iZ6U+0S4D7rcJOh6o+UjPsM9ykAcGQkwAGFdRZ0PvESCkOhsJnUOE560BA2umcZh6u+xL7jfE8h7PQGdB56tS9CjJmAz4u9wNbivDXna4sd7wsrfEaCZOHNGxa5v18Ucvv6BhpT5hPuLhXvOwKzPOCWztGImDeFRGakyeLww3BnQKaJgfqIEG6hKPByvjNMmWUlZpyNKFefcgw9GnDOMeHGZv4RS8wiGSGIGUIlzxgroTX756tHxDaqvtFdCCwZ/K+nRxIloevoKgWVYBTYjG7qWnF8fGaol5Z2K8cmz8O2DKjWr7YqbyXUVq9HGqhNdpZ2MJH0K/Cs7F91SkDgYiI76vP+sUh0r/wRrfhMKzSXQHJYztlCEHmUJTdM5zi4VzNh9qebE4+9+k+1XUwnFnIHx1ZjUmO+j+YO34p6kP5hxwW3Gi5Is/mnekaG0r3fSHoRB11Op89CYHlPKNYqIHvgY5wxMPkOzNF4c1pnoFzdKdIj2L8ihywwIkXIIlX8OjM9ok2XH4YBB2wt1i0hlYNCVR6Qmd9Ty8YL1YMBh2jiP+HvcGu7zG2+BMqjrOCRIfD0Mw78k0v/NAHGzhtVr8NLjUKWt8pOa1aHHkudIDMX+nkhOmkzQIJGudIjWhYsKM5RcKyt/3bUSjgk066FfoYxe021KRm2AILAQuUkzwbwNJzhCOTqCBc9F4PfJnMytbWwEpokZkEjvUoheDSdLEcpYoj5Y4IqGXFGrZyPfIFIDza5jOEeksnTjSFlu4q7LTZpUM4JJYO2Jt2YSr+2OVozch3/jK1DxG4jcwL3NBCdSkULUmnHJM6EfHknU8KGlfDE1bQkPOfG6JyMwXq9wQTLNtXB1P1t78jm2OoC/LQs1nvnOfJihzsRRMRzM8LjcoFlkuIEImQ3T2mKY6xMlfBne7Wm3EXO8GYFpyQyBpZXPpUQ/Ysc3Z8OVPtHfQ9PTX0c2oX4DGLGNyB7xagYG3nyeoZkZo3tMQT/s+SxRw4dYTSKakf6mVM+Zj2oV+leI7JUWzcBAhHwC4bV8Stoi9HjvOUQNfRL1KSh74AYxWmUw6pRRk4ncIl4T6L1AQl0AxuQU3MhDO4pXEzU0ebjLcDS7/2oZovqMmtHjBWzlpKhFfDYDA4ZMhZHIR0WmQmrr+cX4thwpCR1wssQ5AprGHr0qehKRfcIvMzBgyAhe4nYbLaVdtpxfxFRZy0hJx5OZ8hKamJKNk+V6yBHziOwzfpuBAUN6SbL4MUXRg/eXbqL2l26Gbqvjbtf27TIM//WzkBIzkPU2uvSFgMxwAx+8WJSEN8ycSbm/ZDM6XrGblNwfEnR9nH/xjFff2Pj6wzAuwhd2ffpLRU8EZQYGoqQr7F6D5Dq3tO4s2gdRcqmdF9fimee4XtOd9zzq+TulWjZiAZjwKSkOmKDNcAOmDILdMjBlEuQT8azpK6aoqsC5Crct0CuiyaMjXJsg82a7aF0VqYxZS04JmjYzww2YMhp2WTAhmqZmdUnVtnJ0DkzBj4+ouHsZatLsOrEVWFqBekY+jHpEpDlNwN0lNEtk4esKwJhcMB1yVtPrEcHS5mY0BowZDLssm2B5XquISMYaJ9jlOq6KMuOnqpCnq7ierBLverKK2oCilPFypKqL87tBTuLAwK8ilLHb4RA/WaUe6+1Bu5rRGDCmL+ycz9yBrZuFq02D4W13Ba0yUBTSQ+9kdAg2k4rVXVEzWvwADvy8nQqo/dOwifC6nUHofy2Bd0ePUISmAAAAAElFTkSuQmCC;fontColor=#68B92E;fontStyle=1;fontSize=14;" vertex="1" parent="1">
          <mxGeometry x="558.63" y="690" width="67" height="69" as="geometry" />
        </mxCell>
        <mxCell id="_WF7XRUWTzuwCXFAQq3I-4" value="WAF" style="shape=image;verticalLabelPosition=bottom;labelBackgroundColor=default;verticalAlign=top;aspect=fixed;imageAspect=0;image=data:image/png,iVBORw0KGgoAAAANSUhEUgAAAEMAAABFCAYAAAARk1tuAAAAAXNSR0IArs4c6QAAAARnQU1BAACxjwv8YQUAAAAJcEhZcwAADsMAAA7DAcdvqGQAAApdSURBVHhe5ZwJVFTXGcfvW2YfVmEE3FBCi0GtsdW4a4tmEYtJbLUmcU3TpNgTezxaNTWaGKNGbE+qia02ai1pgomaVKMYjQY02lZtVFxotKAoyMiAMDrM8tZ+d+YOBZmBWUBm5HfO88373zfOzP9+97v3vnd5FLpPSJKUCbvusCVxsqO3IDj60BSTyNLKeIZm1ILIV/OyvZpGTJma1V+B8ypguwnbSZqmS2Df7rSbGfDjVRRFZTkk+08Ymfkxyyg0Vv6uaHaYUK3DyJjtJlTnqHJuDtGKolUGFAVbtCoeRasNKEaVIEQquzA0zVD1vLlYy0Z+AP/tHjDmgusT2p42NwNMmCHI/GQGMZnwQ5jLt08LZ6sOs0WmQlRjw5XtH/3iRqEBhrFoQPwYMCse2QRLiZrRfQhFH4Exxa6z2oY2M0OW5aeg5tdqFRGpl6qP82eqjiiKTAXojqOanBE8340dAqaMRY8YMrgYTYISPjMH5DfBlLuuM4IjaDMgEn4AYbxOr4we882tQ9znJRuVlZZSUtp+jO05DWX2eVlUMRob5J2lYMgfSFHABGwG1EqCQ7CtVLGaF0rrzgmfl/yRLa75Bym9P6gYLZqQ8gv0WPJsZBesl8GYV8GUXaTYbwIyA6JhmCjzOy1cXdzekveUJyo+IyUdQ1ddMprQ5yU0JHECrqQ1YMgSUuQXfpsBH/ZTSRLzLtWcEN8vWqhwiDZS0vGM6PYMej59OXII9o/VCs1UIvuMX2ZARMyH7vJ3hTd2oLziVUQNLdLjRqDZ/dfINEX9W83osyBKKklRq/hshpW3vKdhddl/v7IeHbi6haihSZL+IfTCgLVinDrJqGDUT4Mhp0hRi/hkhp23boZE+eJfLixF/7q5l6ihjZaNQHMGrEFpsUPrYaQ7GAxpdUzSqhnQNOZC03h3a9FidMqYT9TwYeGQvwpJEanFENUDiOQVmuw9Akb8CBuxv3RTWBqB2X5hKSuIXD+7aPsbkbzi1QwwIpGT7Hlnbh3m9/53I1HDjyrrdZR7cRmlotXPwm/6DZE94t0MWci9bbsZC84qiBS24HnRp5ffQRDlb4MhWURuhsecAW9YJsnS6zknp1Nldy4S1Tsbx58lrzqW7EMDySvPzOi3Ag1JyKxhaDYJjOGI3EAzM8CIWEkWb+4r3aTKL91MVM+Eign34s0UnSIavTXqgKxk1Mugd1lJ5AaamQHjiXcg4cxdcmw8K0o8UZvjNqK12rif+PKdMlNeRk/0/rmdpRU4OmqJ7KRJzoCo6AFd0Lwvrm1p0Yhw5uDVbcjGW1QwrWiWTJuYwYn2127bjNzhslyiPHjwkgMdKttGyUheBJXfjchOGswAp9LwKPPA1T8rieQ3OEwb5xF/j1vDfX7jLRAOXduOau23ZHjZJDoaR8asWrvx7rHyneTwwebgta00REc2BEHD0KEhgXKCo/ho+Y60nd+uI0rLuGsl3BKomxh1V7Rq9EHcIiZBz7IHa87IgLaTqmCUaRerj+PDTgE0E3TVXIQsXO0UIjU0kwkOwcbf78t2Hc3F6q+RglE9QQ5dzYQTuS+LTAWj3j+3wK/kGWgCa298bbq9otLR4kc/xE1lCL7mQcMLvYJWZJw3Ffrdi4RSvsDg7+PPdyozX0S3bZUSvHwSH1OQLybDSGznwoKxuP1grVMxre9v0bCkSWeUrHoQzhlJNsFi64xGYPAUH8D3gJ2R8Va1rXzusq8nRmHBH0IxZ/jbdAcnPIlm9V8lMTTD4MhIvG2vDHjUGWr4W0FmrhrRFE1DUBhwZOSfNuaP3Hp+iZ6U+0S4D7rcJOh6o+UjPsM9ykAcGQkwAGFdRZ0PvESCkOhsJnUOE560BA2umcZh6u+xL7jfE8h7PQGdB56tS9CjJmAz4u9wNbivDXna4sd7wsrfEaCZOHNGxa5v18Ucvv6BhpT5hPuLhXvOwKzPOCWztGImDeFRGakyeLww3BnQKaJgfqIEG6hKPByvjNMmWUlZpyNKFefcgw9GnDOMeHGZv4RS8wiGSGIGUIlzxgroTX756tHxDaqvtFdCCwZ/K+nRxIloevoKgWVYBTYjG7qWnF8fGaol5Z2K8cmz8O2DKjWr7YqbyXUVq9HGqhNdpZ2MJH0K/Cs7F91SkDgYiI76vP+sUh0r/wRrfhMKzSXQHJYztlCEHmUJTdM5zi4VzNh9qebE4+9+k+1XUwnFnIHx1ZjUmO+j+YO34p6kP5hxwW3Gi5Is/mnekaG0r3fSHoRB11Op89CYHlPKNYqIHvgY5wxMPkOzNF4c1pnoFzdKdIj2L8ihywwIkXIIlX8OjM9ok2XH4YBB2wt1i0hlYNCVR6Qmd9Ty8YL1YMBh2jiP+HvcGu7zG2+BMqjrOCRIfD0Mw78k0v/NAHGzhtVr8NLjUKWt8pOa1aHHkudIDMX+nkhOmkzQIJGudIjWhYsKM5RcKyt/3bUSjgk066FfoYxe021KRm2AILAQuUkzwbwNJzhCOTqCBc9F4PfJnMytbWwEpokZkEjvUoheDSdLEcpYoj5Y4IqGXFGrZyPfIFIDza5jOEeksnTjSFlu4q7LTZpUM4JJYO2Jt2YSr+2OVozch3/jK1DxG4jcwL3NBCdSkULUmnHJM6EfHknU8KGlfDE1bQkPOfG6JyMwXq9wQTLNtXB1P1t78jm2OoC/LQs1nvnOfJihzsRRMRzM8LjcoFlkuIEImQ3T2mKY6xMlfBne7Wm3EXO8GYFpyQyBpZXPpUQ/Ysc3Z8OVPtHfQ9PTX0c2oX4DGLGNyB7xagYG3nyeoZkZo3tMQT/s+SxRw4dYTSKakf6mVM+Zj2oV+leI7JUWzcBAhHwC4bV8Stoi9HjvOUQNfRL1KSh74AYxWmUw6pRRk4ncIl4T6L1AQl0AxuQU3MhDO4pXEzU0ebjLcDS7/2oZovqMmtHjBWzlpKhFfDYDA4ZMhZHIR0WmQmrr+cX4thwpCR1wssQ5AprGHr0qehKRfcIvMzBgyAhe4nYbLaVdtpxfxFRZy0hJx5OZ8hKamJKNk+V6yBHziOwzfpuBAUN6SbL4MUXRg/eXbqL2l26Gbqvjbtf27TIM//WzkBIzkPU2uvSFgMxwAx+8WJSEN8ycSbm/ZDM6XrGblNwfEnR9nH/xjFff2Pj6wzAuwhd2ffpLRU8EZQYGoqQr7F6D5Dq3tO4s2gdRcqmdF9fimee4XtOd9zzq+TulWjZiAZjwKSkOmKDNcAOmDILdMjBlEuQT8azpK6aoqsC5Crct0CuiyaMjXJsg82a7aF0VqYxZS04JmjYzww2YMhp2WTAhmqZmdUnVtnJ0DkzBj4+ouHsZatLsOrEVWFqBekY+jHpEpDlNwN0lNEtk4esKwJhcMB1yVtPrEcHS5mY0BowZDLssm2B5XquISMYaJ9jlOq6KMuOnqpCnq7ierBLverKK2oCilPFypKqL87tBTuLAwK8ilLHb4RA/WaUe6+1Bu5rRGDCmL+ycz9yBrZuFq02D4W13Ba0yUBTSQ+9kdAg2k4rVXVEzWvwADvy8nQqo/dOwifC6nUHofy2Bd0ePUISmAAAAAElFTkSuQmCC;fontColor=#68B92E;fontStyle=1;fontSize=14;" vertex="1" parent="1">
          <mxGeometry x="676.63" y="690" width="67" height="69" as="geometry" />
        </mxCell>
        <mxCell id="_WF7XRUWTzuwCXFAQq3I-6" value="VIP" style="rounded=1;whiteSpace=wrap;html=1;fontColor=#FFFFFF;strokeColor=#68B92E;strokeWidth=2;fillColor=#68B92E;fontSize=14;fontStyle=1" vertex="1" parent="1">
          <mxGeometry x="471.63" y="630" width="241" height="30" as="geometry" />
        </mxCell>
        <mxCell id="_WF7XRUWTzuwCXFAQq3I-7" value="&lt;font style=&quot;font-size: 12px;&quot; color=&quot;#ffffff&quot;&gt;SyslogCollector&lt;/font&gt;" style="ellipse;whiteSpace=wrap;html=1;fillColor=#68B92E;strokeColor=#68B92E;fontSize=12;fontStyle=1" vertex="1" parent="1">
          <mxGeometry x="691.25" y="418.5" width="110" height="60" as="geometry" />
        </mxCell>
        <mxCell id="_WF7XRUWTzuwCXFAQq3I-11" value="&lt;font style=&quot;font-size: 12px;&quot; color=&quot;#ffffff&quot;&gt;SyslogCollector&lt;/font&gt;" style="ellipse;whiteSpace=wrap;html=1;fillColor=#68B92E;strokeColor=#68B92E;fontSize=12;fontStyle=1" vertex="1" parent="1">
          <mxGeometry x="575.25" y="418.5" width="110" height="60" as="geometry" />
        </mxCell>
        <mxCell id="_WF7XRUWTzuwCXFAQq3I-12" value="Kafka" style="rounded=1;whiteSpace=wrap;html=1;fontColor=#FFFFFF;strokeColor=#68B92E;fillColor=#68B92E;fontSize=14;fontStyle=1" vertex="1" parent="1">
          <mxGeometry x="795.5" y="307.5" width="100" height="40" as="geometry" />
        </mxCell>
        <mxCell id="_WF7XRUWTzuwCXFAQq3I-13" value="" style="endArrow=classic;html=1;rounded=0;fontSize=12;exitX=0;exitY=0.5;exitDx=0;exitDy=0;entryX=0.5;entryY=1;entryDx=0;entryDy=0;strokeColor=#68B92E;strokeWidth=2;" edge="1" parent="1" source="_WF7XRUWTzuwCXFAQq3I-8" target="_WF7XRUWTzuwCXFAQq3I-12">
          <mxGeometry width="50" height="50" relative="1" as="geometry">
            <mxPoint x="643.25" y="450" as="sourcePoint" />
            <mxPoint x="693.25" y="400" as="targetPoint" />
          </mxGeometry>
        </mxCell>
        <mxCell id="_WF7XRUWTzuwCXFAQq3I-14" value="DB1" style="shape=image;verticalLabelPosition=bottom;labelBackgroundColor=default;verticalAlign=top;aspect=fixed;imageAspect=0;image=data:image/png,iVBORw0KGgoAAAANSUhEUgAAAEMAAABDCAYAAADHyrhzAAAAAXNSR0IArs4c6QAAAARnQU1BAACxjwv8YQUAAAAJcEhZcwAADsMAAA7DAcdvqGQAAAoYSURBVHhe3ZwLkFdVHcfP/uURsQsSfx67JLgUisAi4mTRCvmIYIxmnGwGpgahcpAhKzPEdBpqHF0TRB0NwqSaEMc1aKoBS0QYIXup7CooLIjaLoUrLA+JwAV3/32/v3vu3fu///u+9/9n6eMcz+PePY/v/5xzzz3ndylTJSCXyw2A+wKClXBVNr+qrKysEtd6IPwu3AEXf1smk9kPv+gUTQw0cCTcFxGcgQZTiNggn7/CewZuA4TZIYndHVQ629nZuRjuHwgXBeS9C24JgqN1samRWs9ABe+Cdxd6QV8jJZ99RxtUy392q/fbDxW4js4O1b/3IHHna5+usnykGpu9UudQCAR5COXVwbXppEQkFgMi3AyPIgw3UgzwG6qdbX9Wrx/apnbCHWs/qK9E4yM9ylXNoMmqJjtFjRs0RfVB3A4EOQmPgtDljNR4xBYDItwAjyJMNFIMWo7vUnuPvqLW71uuTnd8oFPTgz3lmuFfVWOytTrFAKK0wLsPc8pKIyU6scSAEHdAhJ/oqHD41AH17Dur1Iv/+q1OKS4TBl+jpo+8SY3oN1anGECURyHId3Q0EpHFgBCPQYh5Oqo++PC/EOEXaiPc2aB22JdFlGyfYTpFBPkjvNkQ5YiREo7QYkAErg2egBDXGilKvY454TdN96tDJ0uyDPDla2MWqys/zpFrAEGa4FGQV4yUYEKJASE+C28NhKg2UpR6oeUp9XRT3kg560yr/oa6ftR3dUwEOQOPgjxtpPgTKIbuEX+xC7F2z1K1pXmNjnUvJg6ZqubW3Kt6ZnrrFBGlFoJw4eZLGDGeN4dGDv+tbLxV7Tj0glzrrgzvd4maO+5erFM+IXGI8TbaUAvXKgkeZLTvip4srTniXBCCtBzfrVbtuEMmd4I28NVgtUR88OwZECLv8ZlkaKyY+qoOhWfBpgk6FJ9LB1+t5k94WMekhzyG4TJfRwtwFQNC3AAh1ulo5MkyTuP9SCLMtSNmq69cvFDHRJBFEGSpjubhJcZ2iCErSz4+lzfcIulBuImQpCFp5TfrkjvV5y6YJWGIcQLehRDksCTYKBADQtwMIWRJyzFX9/eZgesIZ6XT6OJO7GXEyf/Oz9TLxEogyIMQ4/sSseEmRjPEkJeu37/5SODKMmklo2KWF7Wsy4Z8Xs27dJmOiSAXQ5C9OirkPU0ghPX2yXeNKEvsUghBzHKcvTGIxveeV7sP/03H0AvKyrjlkIclBpTKwrNu4EtXEHF/paTEFeTZt/PaNAc//iQdFuxiLIBasjHD1/BSvX2WEm4tvNz6Jx0T8t5u7cOE+5XC3iOh323OORpan9MhwWozETHQXarRK65gmDtU699azuD/Ja8e3KLePfGWhNHmCrT9OokAs2fM0L5s1UXdoYo6dpOStLydbdt0SLDaXiAG9yyjEHcyiwPLSKMc7snasIZKBhPnAHQX61zDcWMo7IIUSxR7vkmfXtyp5648QduHY6hwv0aVITATCfWM8KZlL3+dwVCwgs6KuYkRp/JB+ZjX4wpj3xlDh7gbC7AfUYxbIcZDTNzS8qRa27REbgiDmxgmbo2Ji1sZScWgEBSEQIzHIcY8irEEYtzOxN+9+bB67p1fyQ1h8BPDCz+RouSVVIyaQVPUgsselTDEeAZizOAEygNgwRxHUYjaA1h5L1dKHG0VDSgG9ziFOGKcqzjaKhok7hkkau9IShrlvd/eJgtMgmliKIbKeRkEUukZpRIkzXLs7YUYlVxn0FBEON3RrkPhsY/1YgrCvM3805pfOnIdOiT05DChhYxwfu/BOhQN+wRoVjotYZx5pTnR0uzBxgE+WrdiqExhbNlLc9W+Y41yJQyspFvlgoRI62+SUN5rgFp6lXHsgdFxGI/WLMWohxgzmbhqxyK1vXWj3BAGLzGcBDXUjbQb72RYxUXqh5PWShhi7IQY4ynGgxDje0xct2ep2hzhbMRsZLErbuInatQ6jM3WqlsmrpAwxNgIMaZzzqBFndA/5pxRbCiCXQg23Nn4qL3PMV/IvJk3gVbps8moRK1IFPxEMONmmlM0PyrLP6lDgnQIimG9s9NEiDZUcSiGIGaeThHcCLrupCY7WYeErfwfhkpmP8aMtYdOY7IoxP1lkuBVjr0eflxQMVoN6XuhhNH2o9BANkbZM8gG7YtVXRzcRAmqlB/m35p5pgnfWG1YbZcTNTxRxuOJ8hrDpz48oW7bkm9J5wUr7FXZJEIwTz8xgoTyqxdZ9Ok1qrp/jYTRM2ahZ4hlj3W8CEF2QRA5jPxpw7fUG20vSrofQYW6ESSSmZ+zwWH/jjj/1s7APlXqnsl5ZycVaDcPo61hQqzuQjvLsARV0gkr6OeKDU0UTNArNphCEEsMJP5SB8XglHaW3Qk3wdzSTNzSuHS4Ov+H/rn2BbsYTVBK9kIJbSuDMAuM2juKiV9dpld3tQlt5Vbfeh0V7MOEgtThJtpii+UtDU6DsAuSpihpCz1qwOXqU5XW4Rmp076FUwxa51s3hekdxN4l0xbFDZZnL9PELNftmr0t+MFXo1cUmEIWGKvgxjK4f0IYsdPgafyTu+6Wa2HwEsKtgm44G2TPzy8Pv/umVX9TXT+q68Ad7RsNMfboqEWBGASP2fkQ42c6GvkIwcRLmDDYG+TMx+uam1iXD52mbhrfdRYEIVxNmIirGASCPAJBvq2j6vHXFqqG9zbpWHy8BPL71U38xHX7+xH9xqiFV/xa9cj0kjiE4GddX5KIC55iEAjC57AczJ7pbFcPvDRHDE7PBT7as5+6HUIM7TtS4hCCi0paCR+TBBfyJlAXbkQmtM4XW2yaIFeVj5IL3RkK8ePaP9iFaIcIN/oJQXzFQJfi9xqzkRmt88UWm2rT8ra7wqHBOlb0+phOkafkbLjtOuqJ7zAxwXCxTupN1u15QG1ufkLHugecLOeOu8eaIwh+yB/gR71fR30JJQaBILRh4Mc3Rt8DW/fXq/rd9+nY2cXl8cmhwR5h7PqGILQYBAXwGG41Cpiqk2RCpZkk7SzPBlxZckE1ZqDYmwioIydLzhGBQ8NOJDFM0EtWoiB+wmlBg1PaWdK8sBTwpYvvGo4lNoXgE5A9wneydCOWGASC0KZjMQrN2zSlnWVj6ybVeHCzTkkX7kfwNdzx9ilACM8FVRhii0EgyEB4NLG+zUjpguaFtKqjjRjNo5LAPUtu1fEjX3OHyg6HLrw6CFGwxI5CIjFMIMpFEISm1nOMlHx42k1Rmo+/IeEul//VNo/8zE+/+Rk4t/O5i21u3jqBCPzHAihC4PdnJQeiTIJ7Cu44KhpIZ2dH7uip1lzbyX/nznSc1qnBIP/1cJ7L6m4HKnsd3Aq4Zt2G2CCPI3Cr4WYiGu9gJwSpDJMg0Ag+96bB0TCGlkLiY2gNhW+BhvLrIJ5u2f8xka0YBnkG38WiJGJ4gcafB0dhesIdQKOjW8ukhlL/A5uooe5chI1qAAAAAElFTkSuQmCC;fontColor=#68B92E;fontSize=14;fontStyle=1" vertex="1" parent="1">
          <mxGeometry x="540" y="194" width="67" height="67" as="geometry" />
        </mxCell>
        <mxCell id="_WF7XRUWTzuwCXFAQq3I-15" value="" style="rounded=1;whiteSpace=wrap;html=1;direction=south;fillColor=none;strokeColor=#68B92E;strokeWidth=2;" vertex="1" parent="1">
          <mxGeometry x="709.5" y="186" width="269.5" height="85" as="geometry" />
        </mxCell>
        <mxCell id="_WF7XRUWTzuwCXFAQq3I-16" value="&lt;font style=&quot;font-size: 12px;&quot; color=&quot;#ffffff&quot;&gt;StreamProc&lt;/font&gt;" style="ellipse;whiteSpace=wrap;html=1;fillColor=#68B92E;strokeColor=#68B92E;fontSize=12;fontStyle=1" vertex="1" parent="1">
          <mxGeometry x="833.75" y="203.5" width="110" height="60" as="geometry" />
        </mxCell>
        <mxCell id="_WF7XRUWTzuwCXFAQq3I-17" value="&lt;font color=&quot;#ffffff&quot;&gt;StreamProc&lt;/font&gt;" style="ellipse;whiteSpace=wrap;html=1;fillColor=#68B92E;strokeColor=#68B92E;fontSize=12;fontStyle=1" vertex="1" parent="1">
          <mxGeometry x="715.75" y="203.5" width="110" height="60" as="geometry" />
        </mxCell>
        <mxCell id="_WF7XRUWTzuwCXFAQq3I-18" value="" style="endArrow=classic;html=1;rounded=0;fontSize=12;strokeColor=#68B92E;strokeWidth=2;exitX=0.5;exitY=0;exitDx=0;exitDy=0;entryX=1;entryY=0.5;entryDx=0;entryDy=0;" edge="1" parent="1" source="_WF7XRUWTzuwCXFAQq3I-12" target="_WF7XRUWTzuwCXFAQq3I-15">
          <mxGeometry width="50" height="50" relative="1" as="geometry">
            <mxPoint x="643.25" y="350" as="sourcePoint" />
            <mxPoint x="693.25" y="300" as="targetPoint" />
          </mxGeometry>
        </mxCell>
        <mxCell id="_WF7XRUWTzuwCXFAQq3I-19" value="" style="endArrow=classic;html=1;rounded=0;fontSize=12;strokeColor=#68B92E;strokeWidth=2;exitX=0.5;exitY=0;exitDx=0;exitDy=0;entryX=0.5;entryY=1;entryDx=0;entryDy=0;" edge="1" parent="1" source="_WF7XRUWTzuwCXFAQq3I-3" target="_WF7XRUWTzuwCXFAQq3I-6">
          <mxGeometry width="50" height="50" relative="1" as="geometry">
            <mxPoint x="560" y="420" as="sourcePoint" />
            <mxPoint x="610" y="370" as="targetPoint" />
          </mxGeometry>
        </mxCell>
        <mxCell id="_WF7XRUWTzuwCXFAQq3I-20" value="" style="endArrow=classic;html=1;rounded=0;fontSize=12;strokeColor=#68B92E;strokeWidth=2;exitX=0.5;exitY=0;exitDx=0;exitDy=0;entryX=0.5;entryY=1;entryDx=0;entryDy=0;" edge="1" parent="1" source="_WF7XRUWTzuwCXFAQq3I-4" target="_WF7XRUWTzuwCXFAQq3I-6">
          <mxGeometry width="50" height="50" relative="1" as="geometry">
            <mxPoint x="560" y="620" as="sourcePoint" />
            <mxPoint x="610" y="570" as="targetPoint" />
          </mxGeometry>
        </mxCell>
        <mxCell id="_WF7XRUWTzuwCXFAQq3I-21" value="" style="endArrow=classic;html=1;rounded=0;fontSize=12;strokeColor=#68B92E;strokeWidth=2;exitX=0.5;exitY=0;exitDx=0;exitDy=0;entryX=0.5;entryY=1;entryDx=0;entryDy=0;" edge="1" parent="1" source="_WF7XRUWTzuwCXFAQq3I-2" target="_WF7XRUWTzuwCXFAQq3I-6">
          <mxGeometry width="50" height="50" relative="1" as="geometry">
            <mxPoint x="560" y="620" as="sourcePoint" />
            <mxPoint x="610" y="570" as="targetPoint" />
          </mxGeometry>
        </mxCell>
        <mxCell id="_WF7XRUWTzuwCXFAQq3I-23" value="" style="endArrow=classic;html=1;rounded=0;fontSize=12;strokeColor=#68B92E;strokeWidth=2;entryX=1;entryY=0.5;entryDx=0;entryDy=0;exitX=0.5;exitY=1;exitDx=0;exitDy=0;" edge="1" parent="1" source="_WF7XRUWTzuwCXFAQq3I-15" target="_WF7XRUWTzuwCXFAQq3I-14">
          <mxGeometry width="50" height="50" relative="1" as="geometry">
            <mxPoint x="633.25" y="150" as="sourcePoint" />
            <mxPoint x="693.25" y="200" as="targetPoint" />
          </mxGeometry>
        </mxCell>
        <mxCell id="_WF7XRUWTzuwCXFAQq3I-24" value="&lt;font color=&quot;#ffffff&quot;&gt;Webapi&lt;/font&gt;" style="ellipse;whiteSpace=wrap;html=1;fillColor=#68B92E;strokeColor=#68B92E;fontSize=12;fontStyle=1" vertex="1" parent="1">
          <mxGeometry x="235" y="196" width="110" height="60" as="geometry" />
        </mxCell>
        <mxCell id="_WF7XRUWTzuwCXFAQq3I-25" value="&lt;font color=&quot;#ffffff&quot;&gt;CeleryEngine&lt;/font&gt;" style="ellipse;whiteSpace=wrap;html=1;fillColor=#68B92E;strokeColor=#68B92E;fontSize=12;fontStyle=1" vertex="1" parent="1">
          <mxGeometry x="236.5" y="421" width="110" height="60" as="geometry" />
        </mxCell>
        <mxCell id="_WF7XRUWTzuwCXFAQq3I-28" value="Squid" style="rounded=1;whiteSpace=wrap;html=1;fontColor=#FFFFFF;strokeColor=#68B92E;strokeWidth=2;fillColor=#68B92E;fontSize=14;fontStyle=1" vertex="1" parent="1">
          <mxGeometry x="239.5" y="532.5" width="241" height="30" as="geometry" />
        </mxCell>
        <mxCell id="_WF7XRUWTzuwCXFAQq3I-29" value="" style="endArrow=classic;html=1;rounded=0;fontSize=12;strokeColor=#68B92E;strokeWidth=2;entryX=0.5;entryY=0;entryDx=0;entryDy=0;exitX=1;exitY=0.5;exitDx=0;exitDy=0;" edge="1" parent="1" source="_WF7XRUWTzuwCXFAQq3I-66" target="_WF7XRUWTzuwCXFAQq3I-1">
          <mxGeometry width="50" height="50" relative="1" as="geometry">
            <mxPoint x="360" y="280" as="sourcePoint" />
            <mxPoint x="650.5" y="515" as="targetPoint" />
          </mxGeometry>
        </mxCell>
        <mxCell id="_WF7XRUWTzuwCXFAQq3I-30" value="" style="endArrow=classic;html=1;rounded=0;fontSize=12;strokeColor=#68B92E;strokeWidth=2;exitX=0.5;exitY=1;exitDx=0;exitDy=0;entryX=0;entryY=0.5;entryDx=0;entryDy=0;" edge="1" parent="1" source="_WF7XRUWTzuwCXFAQq3I-1" target="_WF7XRUWTzuwCXFAQq3I-46">
          <mxGeometry width="50" height="50" relative="1" as="geometry">
            <mxPoint x="600.5" y="565" as="sourcePoint" />
            <mxPoint x="650.5" y="515" as="targetPoint" />
          </mxGeometry>
        </mxCell>
        <mxCell id="_WF7XRUWTzuwCXFAQq3I-31" value="" style="endArrow=classic;html=1;rounded=0;fontSize=12;strokeColor=#68B92E;strokeWidth=2;exitX=1;exitY=0.5;exitDx=0;exitDy=0;entryX=0.5;entryY=0;entryDx=0;entryDy=0;" edge="1" parent="1" source="_WF7XRUWTzuwCXFAQq3I-46" target="_WF7XRUWTzuwCXFAQq3I-28">
          <mxGeometry width="50" height="50" relative="1" as="geometry">
            <mxPoint x="600.5" y="565" as="sourcePoint" />
            <mxPoint x="650.5" y="515" as="targetPoint" />
          </mxGeometry>
        </mxCell>
        <mxCell id="_WF7XRUWTzuwCXFAQq3I-33" value="Nginx Ingress Api Gateywa" style="rounded=1;whiteSpace=wrap;html=1;fontColor=#FFFFFF;strokeColor=#68B92E;strokeWidth=2;fillColor=#68B92E;fontSize=14;fontStyle=1" vertex="1" parent="1">
          <mxGeometry x="725" y="540" width="241" height="30" as="geometry" />
        </mxCell>
        <mxCell id="_WF7XRUWTzuwCXFAQq3I-38" value="&lt;font style=&quot;font-size: 12px;&quot; color=&quot;#ffffff&quot;&gt;RequestCollector&lt;/font&gt;" style="ellipse;whiteSpace=wrap;html=1;fillColor=#68B92E;strokeColor=#68B92E;fontSize=12;fontStyle=1" vertex="1" parent="1">
          <mxGeometry x="980.75" y="416.5" width="110" height="60" as="geometry" />
        </mxCell>
        <mxCell id="_WF7XRUWTzuwCXFAQq3I-39" value="&lt;font style=&quot;font-size: 12px;&quot; color=&quot;#ffffff&quot;&gt;RequestCollector&lt;/font&gt;" style="ellipse;whiteSpace=wrap;html=1;fillColor=#68B92E;strokeColor=#68B92E;fontSize=12;fontStyle=1" vertex="1" parent="1">
          <mxGeometry x="862.75" y="418.5" width="110" height="60" as="geometry" />
        </mxCell>
        <mxCell id="_WF7XRUWTzuwCXFAQq3I-40" value="" style="endArrow=classic;html=1;rounded=0;fontSize=12;strokeColor=#68B92E;strokeWidth=2;exitX=0.5;exitY=0;exitDx=0;exitDy=0;entryX=0.5;entryY=1;entryDx=0;entryDy=0;" edge="1" parent="1" source="_WF7XRUWTzuwCXFAQq3I-6" target="_WF7XRUWTzuwCXFAQq3I-33">
          <mxGeometry width="50" height="50" relative="1" as="geometry">
            <mxPoint x="560" y="520" as="sourcePoint" />
            <mxPoint x="610" y="470" as="targetPoint" />
          </mxGeometry>
        </mxCell>
        <mxCell id="_WF7XRUWTzuwCXFAQq3I-42" value="" style="endArrow=classic;html=1;rounded=0;fontSize=12;strokeColor=#68B92E;strokeWidth=2;exitX=0.5;exitY=0;exitDx=0;exitDy=0;entryX=1;entryY=0.5;entryDx=0;entryDy=0;" edge="1" parent="1" source="_WF7XRUWTzuwCXFAQq3I-33" target="_WF7XRUWTzuwCXFAQq3I-37">
          <mxGeometry width="50" height="50" relative="1" as="geometry">
            <mxPoint x="990" y="510" as="sourcePoint" />
            <mxPoint x="1040" y="460" as="targetPoint" />
          </mxGeometry>
        </mxCell>
        <mxCell id="_WF7XRUWTzuwCXFAQq3I-43" value="" style="endArrow=classic;html=1;rounded=0;fontSize=12;strokeColor=#68B92E;strokeWidth=2;exitX=0.5;exitY=0;exitDx=0;exitDy=0;entryX=1;entryY=0.5;entryDx=0;entryDy=0;" edge="1" parent="1" source="_WF7XRUWTzuwCXFAQq3I-33" target="_WF7XRUWTzuwCXFAQq3I-8">
          <mxGeometry width="50" height="50" relative="1" as="geometry">
            <mxPoint x="990" y="510" as="sourcePoint" />
            <mxPoint x="1040" y="460" as="targetPoint" />
          </mxGeometry>
        </mxCell>
        <mxCell id="_WF7XRUWTzuwCXFAQq3I-44" value="" style="endArrow=classic;html=1;rounded=0;fontSize=12;strokeColor=#68B92E;strokeWidth=2;exitX=0;exitY=0.5;exitDx=0;exitDy=0;entryX=0.5;entryY=1;entryDx=0;entryDy=0;" edge="1" parent="1" source="_WF7XRUWTzuwCXFAQq3I-37" target="_WF7XRUWTzuwCXFAQq3I-12">
          <mxGeometry width="50" height="50" relative="1" as="geometry">
            <mxPoint x="990" y="310" as="sourcePoint" />
            <mxPoint x="860" y="380" as="targetPoint" />
          </mxGeometry>
        </mxCell>
        <mxCell id="_WF7XRUWTzuwCXFAQq3I-45" value="" style="endArrow=classic;html=1;rounded=0;fontSize=12;strokeColor=#68B92E;strokeWidth=2;exitX=0.5;exitY=1;exitDx=0;exitDy=0;entryX=0.5;entryY=0;entryDx=0;entryDy=0;" edge="1" parent="1" source="_WF7XRUWTzuwCXFAQq3I-28" target="_WF7XRUWTzuwCXFAQq3I-6">
          <mxGeometry width="50" height="50" relative="1" as="geometry">
            <mxPoint x="560" y="420" as="sourcePoint" />
            <mxPoint x="600" y="590" as="targetPoint" />
          </mxGeometry>
        </mxCell>
        <mxCell id="_WF7XRUWTzuwCXFAQq3I-47" value="&lt;font color=&quot;#ffffff&quot;&gt;CeleryEngine&lt;/font&gt;" style="ellipse;whiteSpace=wrap;html=1;fillColor=#68B92E;strokeColor=#68B92E;fontSize=12;fontStyle=1" vertex="1" parent="1">
          <mxGeometry x="354" y="420" width="110" height="60" as="geometry" />
        </mxCell>
        <mxCell id="_WF7XRUWTzuwCXFAQq3I-48" value="Deployment" style="text;strokeColor=none;fillColor=none;align=center;verticalAlign=top;rounded=0;fontSize=13;fontColor=#68B92E;fontStyle=1;horizontal=1;labelPosition=center;verticalLabelPosition=middle;html=1;whiteSpace=wrap;" vertex="1" parent="1">
          <mxGeometry x="744.75" y="395" width="70" height="30" as="geometry" />
        </mxCell>
        <mxCell id="_WF7XRUWTzuwCXFAQq3I-52" value="Deployment" style="text;strokeColor=none;fillColor=none;align=center;verticalAlign=top;rounded=0;fontSize=13;fontColor=#68B92E;fontStyle=1;horizontal=1;labelPosition=center;verticalLabelPosition=middle;html=1;whiteSpace=wrap;" vertex="1" parent="1">
          <mxGeometry x="388" y="391" width="70" height="30" as="geometry" />
        </mxCell>
        <mxCell id="_WF7XRUWTzuwCXFAQq3I-54" value="" style="endArrow=classic;html=1;rounded=0;fontSize=13;fontColor=#68B92E;strokeColor=#68B92E;strokeWidth=2;exitX=0.5;exitY=0;exitDx=0;exitDy=0;entryX=0;entryY=0.5;entryDx=0;entryDy=0;" edge="1" parent="1" source="_WF7XRUWTzuwCXFAQq3I-66" target="_WF7XRUWTzuwCXFAQq3I-14">
          <mxGeometry width="50" height="50" relative="1" as="geometry">
            <mxPoint x="560" y="190" as="sourcePoint" />
            <mxPoint x="610" y="140" as="targetPoint" />
          </mxGeometry>
        </mxCell>
        <mxCell id="_WF7XRUWTzuwCXFAQq3I-55" value="" style="shape=image;verticalLabelPosition=bottom;labelBackgroundColor=default;verticalAlign=top;aspect=fixed;imageAspect=0;image=data:image/png,iVBORw0KGgoAAAANSUhEUgAAAF4AAABeCAYAAACq0qNuAAAAAXNSR0IArs4c6QAAAARnQU1BAACxjwv8YQUAAAAJcEhZcwAADsMAAA7DAcdvqGQAAAxvSURBVHhe7Z0LcBXVGcfP3b17n3kD4RnCQwIopK2iweoMVNKqFRUrjvgCdGoftopTxxHE6bQVHUtrqZahVas8jAqtT1rlMVhgRKAQhg4GNQkQXpGEkBCS3Oe++v33nmQIed2b3L1JbvY3s7m7395cwv98++3Zs2f/18b6ILqup9MykVbzaDFeNV0dq+pqpo3ZvIJN8NpsgofimqapAY2pfoEJFyh2QbCJ5RQvpaUMrzabDUuQ1vsUfUJ4EjmFlhm0OkPTtVmiIF6JuKopem3gTKjKd0SsCZyWgoqfhVQfa361MYE57R7mEr3MZfca69nu0Wx4yjh5kHukhM8A9Dm7RMH+Ka3uoGUnNYRu7OhFek14ElqiZZ6iK/dLgvQDxKqbKoJf1e11lZ0vZpWN5eys/4Tx3u4g2uxsqHcMy0mbzPIyp7FJWdPDWe5hDlVTZTpi3qW3rBcEYWPk3Ykn4cKT2IUhLbhAsklzqSy4Dp3dIRdXb5HK64pZfegsf5c5ZHtyWV7W1WzasJvYRHqV1XCtXZDW0a43qREORt6VGBImPBXj2YouPyEJjpmnGkt9eys/8hZXbWYN4Vr+jsSCRkADTB9xa3CIJ8dFCbGBwi9TA+yOvMNcTBeeBJ9LJ8Un7IJ9+uGaz+RtJ4ukr2v38r19g6uG3ci+N/peNj7j2zgiN9I5YAUtOB+YhmnCk+B5lOHLKcNvP1i9Tf70RJF0tD6hR3PM5A+ZyW7IvZfKUAEaYBWJv5SWer47rpgiPIn+DP3Bz37TeCT8QfkKR8m5XXxP/+DaEbezORMWyV4pvYl6Q4vp//Iq3xU34io8ZckY6rq9Tb2G6RuPrLRtrnid7+l/OEQ3u+2yX7JZuffj/7WexH+AFoXv7jFxE56y/AZFkzdU+46nvVGy2HGm6Sjf07+ZPGg6e2jqC7JddJY6BfdcOvni4qzHxEV4Ev1hHI6o5au/WCLJWpjvSQ4Gu0exhVOfYzmpk3yS4LyLxN/Ed3WbHgvvlxtWuO2pj2+peIN9WP4SjyYnC6c8xwpGzEbpeZTEX8nD3aLbwlOWO6nXsp56LXPe+vJ3bNfp9/ie5Gb2+J+zW8b/DOKvIPF/xcMx0y3h6R+dRJfe7/jlC1e8/sViqbTuv3zPwABZj+ynK99NdOV7JzVAgO+KmpiFR6ZrurZX1oL5y/bMFWoD3/A9AwtcbD2c/6LscaR94hCdc3g4agT+GjUoL8j0gSw6OFr/P0a9NwkXiFQBXuDhqIlJeJxIUdNRXgay6M2U1e1nRYd/g9WnSPyfGMEoiVp4dBnRe8GJdKDV9M74vPIDtrni71h9hcQvNIJREJXwuDhCPx1dxoHSe4mFj8r/wg5UbWFhNfhP0mosD3dKl8JTK47BFSkujpK9n94TVpcsZWd8RzOCqu99HuqULoXH2Mu5wCkPrkh5yKIdVE1ma75YiuqQT8taHu6QToWnD3gGA16vHXrSk2zDAGZQ5atga0qeFqgszyft5vFwu3QoPP1iHn3As/86siqULANeiaDk3Gdsd+WH6HYvpzLdob6dZfxzVb7jTZsqXnPxbYso2XhkJdN0dSQJv4yH2tCu8JTtcynb575X+ocUHrKIgQuhGurpvIySs4S0zOfhVrQrPO6RHqrZ4etvd476EttPvo0pKiqtLopEWtNGeGqh2bgxvbVijZeHLLrJf04WiZT1D+F8yUMttJfxi76q3ePv6zem+wM4yVb7Tmi02ibrWwmPS15qocKtx9dgXqJFHNh+8i3U+kco63N4yOBS4e854ztW19fmvfRndp7awAJyE2p9q359i/AkuqQz/Z5dp97N4iGLOLG/apOoaOH5fNPgYuHn0VWqG9PqLOILNJVE5xQqN1fzUKtSM6+sbt+53prLmMyUny+mk+zxVuXGEJ6yPYVOAD/cVfnBYCNqEXcOVG8VVU25g2+2CI+HAhimSluYA7S1i9JY0noctptLzYwaf2WD2fPTBzJ42AJPuDQnebPwM0vrrC6kmWi6yo6cP4g6PxPbArVAOtX3q7+s3Z2GgIV5lJ3fZ1c0+ftYh/B4qs545sjCXCqbyqlb6RhO3UovSk2epqlaTx70soiOal+LxhMh/MT6cE1DZNvCTM76j/M1lmdk/Dn/6Zjn/lnEjqZrrLrJGK00Mj7nrO+E3dhjYTp1wTMQPgfCp/qVBmvqRoIIqk12RZezDOGDiq/XHzEfKARVH1NUOZNnfKMzErYwG/gwMJuWzjO+KRK1MB2YX4g2uwfCa3TlGolamA4cRwgNPxudotdSPkG47B6mM1uDIbzbbs1bShSU5EzTVJ8hvMeRFoqELcwGhkZ2UTpvCO8V0+RI2MJsXKKH2W1SHYSvyPbm4tUiAQz1jg1TZ+YYBC8d6s0VI2ELM5EEJ8t0DXXoul4G4ctSHYMy4OFlYS7wSOOUGhmPtYuCFiZBlcV4pVJThnl9hvBwq7Mwl5zUSSysho6R5jKED1LN2XF51rXWuIHJTMwqUCTBsQXrRm+GxN85adB0a4TSRHCROiZ9Ck6khslcczdyR5pzUGq2ZzTftIg3EzKn8TW2Ez+ahd9J5SaUl3UN37SIN/C4UbTQYUEQqrHdXGpQZt4vGD67z5kfJwuZzqGyaHP8g2+2ZDxYf1nmd1xwILWIL/lDZrBUZxZur8LN1aBFeDoENmqaWg3bV4v4Ak1DSmAvadzi4HdxxlPJEd6+btSPTHEWHahkuLLZVcNu0h2iaw0PGbQSnngzyzUsA167FvHhuyPmMF3XMG+pKBKJ0Ep4OhQOUu9mQ2HufGt8Pg5g/GtW7gOKYBNfJG19PGxwacaDl6ij74TBsUXPuCH3PuaK3N1rY/TTRnhqmT2U9RsLxyywupY9BNkeUgN/JU3bPFjWXsajX79iQuaVLrhKW3SP2y57lHntGZpL9Pyeh1rRkfA7KOtXwcobrtIWsTEqdSK7edyPmSjYn6Jsr+ThVrQrPCDxl3qljEZYeVvExpwJj8kBxXeIRP8zD7WhM+HrRUFcAv90WHlbRMf1o+5kVwy+XqIS8zgPtUuHwgMS/1UqOevhnw4rb4vOmZRVwO67/NcsqPj+RNm+nYfbpcsZZCS8XVZDxScbv/rWH/ct4FGLSxnkHsmevGadRoJuS3cN6fIKtNOMB5T1il1w3D069fJGmNdbtA/ctelkeizNOfhWHuqULoUHdNiU2gXp7oLhsw3/dIvWLJiyDPdTgylSxq2UqFH5REYlPCDxN1HZeRQD+gUjomrUAcEt43+KL/FiDtEFA72vebhLohYekPgrSfwVC6mF4Z8+0Llm+C1UAR5hPrke/fWPeTgqujU9O6yEPvHLDYWrS/BtCft5dGAB0R+c+jyj/vrfPFJKzPW3W8JrmuZWdPkdmNYXHf4t+7wyKh/jpAHlBZneXdFBjx5IoLKDbwp4Cl+09VH5y5FgkrNgyrNU028zykuKI3M5D8dMj4QHJD6+KeAV+KfDyhuu0skI+unoMo5Omxzg3wUVU02/lB4LD0j8wqDif6/aX5EGK2+4SicTuCJdOPV5Df103mWMuvfSEXERHlDdHwvTel3T8leXPC3AVToZwNgLhgECcuO/3VLqndH207sibsI3Qw2wlv64+XAZhas0DI77IxjaxSgjBrww9uKWUp7gu+JC3IUHJP48+KfDyhuu0jA47k/gJgbG0zG0i1FGquedDnh1B1OEB1T3YUK0jLJ/yZmmY+FtJ9Y6cBT0VXBjGvdIZ42eL6c4MjTBJi4mwTscT+8ppgnfDGU//NMXUQM8VOM/LX96Yp0E29e+QrpzCLtu5B1sVu582Sl6hLAWXIXbdSR6u3eO4oXpwjdDDQAr78eoAX4RkH3K/qqP7cXUBYUZZm+AWRTTht1oTDYi/CEtsMoteiF4QhxPEyZ8M9QAcJWeJ2vBBx2ie/JZ30m5uHqzBF9GWATCrc4MMD8dU6UxyIcJpJjLGFAa97vEFHzNchEJ3mrei9kkXPiLoUaA1y41Quguh+jKgS9j+fkDNhwFME6DhxfspOBsFAt4ug7PdGHJod4JnsTgDwWwsBr4WhJc79DqehK7DLHeoFeFvxg63MfRAjPMmWE1eLPT7h4S2cNYjf+UXBM4JYUUv+H3AusRuGDAkAHeAHhMHU9Mu8UUJdubq+GRRv6rxjNHuk3b7rC5ttLmThLbmJ/e2/QZ4S+FjgZ8VQasGXFuwCtKVCqJni0IcL3Q4ZOpqTq1gi5cwGPqeGKaziHHqAGRyaW0XkZLHxzDYOz/DSEa5l42wgEAAAAASUVORK5CYII=;" vertex="1" parent="1">
          <mxGeometry x="50" y="187.5" width="80" height="80" as="geometry" />
        </mxCell>
        <mxCell id="_WF7XRUWTzuwCXFAQq3I-57" value="" style="endArrow=classic;html=1;rounded=0;fontSize=13;fontColor=#68B92E;strokeColor=#68B92E;strokeWidth=2;exitX=1;exitY=0.5;exitDx=0;exitDy=0;entryX=0.5;entryY=1;entryDx=0;entryDy=0;" edge="1" parent="1" source="_WF7XRUWTzuwCXFAQq3I-55" target="_WF7XRUWTzuwCXFAQq3I-66">
          <mxGeometry width="50" height="50" relative="1" as="geometry">
            <mxPoint x="255" y="160" as="sourcePoint" />
            <mxPoint x="305" y="110" as="targetPoint" />
          </mxGeometry>
        </mxCell>
        <mxCell id="_WF7XRUWTzuwCXFAQq3I-58" value="&lt;font color=&quot;#ffffff&quot;&gt;Users&lt;/font&gt;" style="text;html=1;strokeColor=none;fillColor=none;align=center;verticalAlign=middle;whiteSpace=wrap;rounded=0;fontSize=13;fontColor=#68B92E;" vertex="1" parent="1">
          <mxGeometry x="60" y="212.5" width="60" height="30" as="geometry" />
        </mxCell>
        <mxCell id="_WF7XRUWTzuwCXFAQq3I-60" value="&lt;span style=&quot;font-size: 17px;&quot;&gt;&lt;font style=&quot;font-size: 17px;&quot;&gt;....&lt;/font&gt;&lt;/span&gt;" style="text;html=1;align=center;verticalAlign=middle;resizable=0;points=[];autosize=1;strokeColor=none;fillColor=none;fontSize=17;fontColor=#68B92E;fontStyle=1" vertex="1" parent="1">
          <mxGeometry x="453.38" y="448.5" width="40" height="30" as="geometry" />
        </mxCell>
        <mxCell id="_WF7XRUWTzuwCXFAQq3I-61" value="&lt;span style=&quot;font-size: 17px;&quot;&gt;&lt;font style=&quot;font-size: 17px;&quot;&gt;....&lt;/font&gt;&lt;/span&gt;" style="text;html=1;align=center;verticalAlign=middle;resizable=0;points=[];autosize=1;strokeColor=none;fillColor=none;fontSize=17;fontColor=#68B92E;fontStyle=1" vertex="1" parent="1">
          <mxGeometry x="786.75" y="456" width="40" height="30" as="geometry" />
        </mxCell>
        <mxCell id="_WF7XRUWTzuwCXFAQq3I-62" value="&lt;span style=&quot;font-size: 17px;&quot;&gt;&lt;font style=&quot;font-size: 17px;&quot;&gt;....&lt;/font&gt;&lt;/span&gt;" style="text;html=1;align=center;verticalAlign=middle;resizable=0;points=[];autosize=1;strokeColor=none;fillColor=none;fontSize=17;fontColor=#68B92E;fontStyle=1" vertex="1" parent="1">
          <mxGeometry x="1078.87" y="451" width="40" height="30" as="geometry" />
        </mxCell>
        <mxCell id="_WF7XRUWTzuwCXFAQq3I-63" value="&lt;span style=&quot;font-size: 17px;&quot;&gt;&lt;font style=&quot;font-size: 17px;&quot;&gt;....&lt;/font&gt;&lt;/span&gt;" style="text;html=1;align=center;verticalAlign=middle;resizable=0;points=[];autosize=1;strokeColor=none;fillColor=none;fontSize=17;fontColor=#68B92E;fontStyle=1" vertex="1" parent="1">
          <mxGeometry x="939.75" y="233.5" width="40" height="30" as="geometry" />
        </mxCell>
        <mxCell id="_WF7XRUWTzuwCXFAQq3I-64" value="StatefullSet" style="text;strokeColor=none;fillColor=none;align=center;verticalAlign=top;rounded=0;fontSize=13;fontColor=#68B92E;fontStyle=1;horizontal=1;labelPosition=center;verticalLabelPosition=middle;html=1;whiteSpace=wrap;" vertex="1" parent="1">
          <mxGeometry x="902.75" y="182" width="70" height="30" as="geometry" />
        </mxCell>
        <mxCell id="_WF7XRUWTzuwCXFAQq3I-65" value="&lt;font color=&quot;#ffffff&quot;&gt;Webapi&lt;/font&gt;" style="ellipse;whiteSpace=wrap;html=1;fillColor=#68B92E;strokeColor=#68B92E;fontSize=12;fontStyle=1" vertex="1" parent="1">
          <mxGeometry x="349" y="193" width="110" height="60" as="geometry" />
        </mxCell>
      </root>
    </mxGraphModel>
  </diagram>
</mxfile>
